Coordinates
version=1
nRows=6
nColumns=63
inDegrees=yes

Units are S.I. units (second, meters, Newtons, ...)
If the header above contains a line with 'inDegrees', this indicates whether rotational values are in degrees (yes) or radians (no).

endheader
time	pelvis_tilt	pelvis_list	pelvis_rotation	pelvis_tx	pelvis_ty	pelvis_tz	hip_flexion_r	hip_adduction_r	hip_rotation_r	knee_angle_r	knee_angle_r_beta	ankle_angle_r	subtalar_angle_r	mtp_angle_r	hip_flexion_l	hip_adduction_l	hip_rotation_l	knee_angle_l	knee_angle_l_beta	ankle_angle_l	subtalar_angle_l	mtp_angle_l	L5_S1_Flex_Ext	L5_S1_Lat_Bending	L5_S1_axial_rotation	L4_L5_Flex_Ext	L4_L5_Lat_Bending	L4_L5_axial_rotation	L3_L4_Flex_Ext	L3_L4_Lat_Bending	L3_L4_axial_rotation	L2_L3_Flex_Ext	L2_L3_Lat_Bending	L2_L3_axial_rotation	L1_L2_Flex_Ext	L1_L2_Lat_Bending	L1_L2_axial_rotation	L1_T12_Flex_Ext	L1_T12_Lat_Bending	L1_T12_axial_rotation	Abs_r3	Abs_r2	Abs_r1	Abs_t1	Abs_t2	neck_flexion	neck_bending	neck_rotation	arm_flex_r	arm_add_r	arm_rot_r	elbow_flex_r	pro_sup_r	wrist_flex_r	wrist_dev_r	arm_flex_l	arm_add_l	arm_rot_l	elbow_flex_l	pro_sup_l	wrist_flex_l	wrist_dev_l
      0.83050847	     16.28746270	     -7.75261118	     96.68240468	      0.25583330	      1.01396279	      0.27736050	     11.85528519	     11.06819341	    -17.32672369	     27.06054192	      0.47229555	     41.46667523	     15.71643252	      0.00000000	     16.23697077	    -21.70596986	    -14.66043433	     39.08380982	      0.68214117	     51.50924482	     17.18561563	      0.00000000	     -0.00732192	      1.19201307	      2.77307648	     -0.01359754	      1.58537738	      2.94639376	     -0.01202919	      2.89826057	      2.94639376	     -0.00836823	      2.89826057	      2.42644192	     -0.00679914	      2.43075304	      2.25312464	     -0.00418375	      1.84642824	      2.07980736	     -0.05229977	     13.48429021	     15.42301946	      0.00000000	      0.00000000	     17.64644385	     -5.26285055	     -3.54678140	     28.04479009	     -2.79826111	     66.58452832	     25.83689885	     64.41754490	     -7.84002859	     -2.25781235	     21.71578387	      6.72703334	     33.80921482	     34.22547530	     83.82760791	    -11.92930601	      5.01520046
      0.84745763	     16.18589779	     -7.68389413	     96.30514243	      0.25659545	      1.01392140	      0.27795907	     11.96289160	     11.04960835	    -16.85075075	     27.29823166	      0.47644402	     41.48798065	     15.96166541	      0.00000000	     16.03472546	    -21.73701720	    -14.99041809	     39.10296723	      0.68247553	     51.71383446	     17.04795497	      0.00000000	     -0.04580292	      1.16453252	      2.79591098	     -0.08506060	      1.54882825	      2.97065542	     -0.07524962	      2.83144437	      2.97065542	     -0.05234816	      2.83144437	      2.44642211	     -0.04253259	      2.37471471	      2.27167767	     -0.02617179	      1.80386087	      2.09693324	     -0.32716568	     13.17342477	     15.55001810	      0.00000000	      0.00000000	     16.46353492	     -5.53726091	     -3.76287184	     29.80685181	     -3.03738524	     73.11378608	     24.38600648	     68.22841156	     -8.67062658	     -1.50038590	     22.50102058	      6.48692410	     37.51252224	     32.85734330	     84.39375937	    -11.39459836	      4.33906296
      0.86440678	     14.08825647	     -7.98904949	     95.43881981	      0.25957014	      1.01494604	      0.27726601	     12.36646821	      9.06447431	    -15.80465783	     28.12300142	      0.49083897	     42.13986139	     16.20187738	      0.00000000	     15.07163454	    -19.62364680	    -16.22733098	     37.89146814	      0.66133088	     51.18123827	     16.80881780	      0.00000000	     -0.05729381	      0.82368870	      2.84332014	     -0.10640034	      1.09550597	      3.02102765	     -0.09412801	      2.00271671	      3.02102765	     -0.06548110	      2.00271671	      2.48790512	     -0.05320304	      1.67966600	      2.31019761	     -0.03273769	      1.27589380	      2.13249010	     -0.40924399	      9.31773134	     15.81369361	      0.00000000	      0.00000000	     13.90414079	     -3.75978954	     -6.61855325	     31.88080004	     -2.65425505	     79.06617371	     23.77165794	     73.27711987	     -9.56944891	     -0.69200121	     23.74995203	      4.72050663	     42.70902674	     31.31791379	     84.02462616	    -10.48079573	      3.45083721
      0.88135593	      4.55274223	     -9.85566053	     91.39173179	      0.27075469	      1.01801984	      0.27611922	     15.52557543	     -0.21276619	    -11.43060812	     32.15630673	      0.56123343	     44.78944796	     16.71141847	      0.00000000	     12.43515476	     -9.31003573	    -20.46375335	     31.97001221	      0.55798197	     47.73941734	     15.10847118	      0.00000000	     -0.05670014	     -0.63968313	      3.58709350	     -0.10529783	     -0.85077856	      3.81128684	     -0.09315266	     -1.55532555	      3.81128684	     -0.06480259	     -1.55532555	      3.13870681	     -0.05265175	     -1.30444183	      2.91451346	     -0.03239846	     -0.99086916	      2.69032012	     -0.40500343	     -7.23622346	     19.95033789	      0.00000000	      0.00000000	     11.48713001	      4.35149969	    -19.56934877	     32.29640988	     -0.62657899	     71.14170804	     25.22040050	     83.09379460	     -9.47352337	      1.20791327	     27.64385385	     -1.00777499	     54.66830449	     30.52079482	     80.02080187	     -9.94326689	      2.70314194
      0.89830508	     -0.18933842	    -10.23062424	     89.67124127	      0.27693602	      1.02386445	      0.27280937	     15.93115685	     -4.51557076	     -9.52227066	     32.13789844	      0.56091214	     45.11000890	     17.20585796	      0.00000000	     10.31233728	     -3.91232174	    -22.04654307	     27.20001056	      0.47472974	     44.67122818	     14.64500944	      0.00000000	      0.01683542	     -1.38395207	      3.48540077	      0.03126506	     -1.84065625	      3.70323832	      0.02765891	     -3.36494106	      3.70323832	      0.01924120	     -3.36494106	      3.04972567	      0.01563337	     -2.82215506	      2.83188813	      0.00961976	     -2.14374176	      2.61405058	      0.12025373	    -15.65554261	     19.38475346	      0.00000000	      0.00000000	      7.01982406	     10.34756080	    -22.18750118	     33.56206774	     -1.04749815	     66.50960799	     29.87014685	     86.80307792	     -8.52081863	      2.50770556	     29.87123494	     -5.87232718	     59.97554347	     29.91401657	     79.78389083	     -9.81726559	      2.14190523
      0.91525424	     -1.75563414	     -9.47506646	     89.56402953	      0.28017462	      1.03128907	      0.26953103	     14.13902663	     -5.69402080	     -9.11019908	     30.19541178	      0.52700935	     44.37980489	     17.24204099	      0.00000000	      7.98887448	     -1.93100182	    -22.24388569	     24.03413230	      0.41947474	     42.37955636	     15.02009306	      0.00000000	      0.05798753	     -1.66039878	      2.88759682	      0.10768865	     -2.20833038	      3.06807162	      0.09526772	     -4.03709359	      3.06807162	      0.06627395	     -4.03709359	      2.52664722	      0.05384722	     -3.38588519	      2.34617242	      0.03313408	     -2.57195771	      2.16569761	      0.41419914	    -18.78276308	     16.05994723	      0.00000000	      0.00000000	      0.72770131	     14.13225310	    -18.72317971	     34.40887555	     -3.83392971	     59.29481019	     38.78290961	     87.85703733	     -5.97617400	      5.26989594	     31.28212325	    -10.27979556	     61.51986026	     28.84400939	     78.88942451	    -10.80283292	      1.54509900
